<svg width="1434" height="1381" viewBox="0 0 1434 1381" fill="none" xmlns="http://www.w3.org/2000/svg">
<path d="M736.273 807.345C746.99 833.09 762.222 866.974 772.422 881.383C668.989 910.324 544.834 950.574 421.562 1004.07C306.312 1058.82 60.6497 1180.27 0 1228.06C107.592 1140.76 382.196 960.009 591.564 866.229C638.064 845.402 686.782 825.575 736.273 807.345ZM758.015 799.457C936.727 735.608 1122.7 693.522 1248.6 700.821C1407.12 710.011 1373.88 802.8 1329.01 852.445C1275.02 912.176 1067.11 1052.31 962.584 1090.22C1039.16 1040.44 1193.01 926.419 1195.76 868.526C1199.21 796.16 1079.75 809.945 995.896 827.175C957.316 835.102 884.209 850.813 792.796 875.756C779.421 860.407 767.507 836.086 758.015 799.457Z" fill="#D9C455"/>
<path d="M777.826 357.889C754.59 430.001 730.529 515.479 723.055 561.259C707.234 658.158 699.907 760.068 763.863 859.332C817.001 941.805 852.311 967.307 887.92 999.47C916.407 1025.2 919.7 1029.34 917.785 1028.19C888.76 1019.46 821.333 1017.31 748.931 965.01C699.51 929.31 634.483 849.096 627.272 713.59C619.978 576.509 694.5 387.984 731.701 325.201C734.105 321.145 736.614 316.855 739.184 312.345L777.826 357.889ZM740.199 0C780.033 63.9908 841.125 162.637 811.051 263.461C804.47 279.776 796.511 301.809 788.074 326.801C782.577 320.306 776.74 314.343 772.394 309.997C765.099 302.703 759.675 292.893 755.48 281.474C778.033 234.589 796.958 172.636 778.69 102.916C758.898 27.3761 741.502 4.85905 740.199 0Z" fill="#003B71"/>
<path d="M809.137 544.674C836.996 654.643 773.76 743.972 736.129 783.798C800.741 752.598 874.015 673.446 885.811 590.874C897.607 508.303 799.664 373.273 761.953 325.465C719.847 272.084 707.888 186.207 706.905 145.576C706.905 145.576 687.246 214.386 704.939 273.366C744.132 404.01 774.314 407.212 809.137 544.674Z" fill="#D9C455"/>
<path d="M882.19 1214.49C1091.56 1120.71 1326.04 963.629 1433.64 876.331C1372.99 924.115 1167.44 1021.9 1052.19 1076.65C808.675 1182.33 561.712 1236.31 477.859 1253.54C394.006 1270.77 274.544 1284.56 277.99 1212.19C280.747 1154.3 434.592 1040.28 511.17 990.5C406.641 1028.41 198.732 1168.54 144.745 1228.27C99.8728 1277.92 66.6354 1370.71 225.152 1379.9C391.176 1389.52 661.646 1313.28 882.19 1214.49Z" fill="#003B71"/>
</svg>
